{
  "asset":{"version":"2.0","generator":"SplashParty build.rs"},
  "scene":0,
  "scenes":[{"nodes":[0]}],
  "nodes":[{"mesh":0,"translation":[8.0,0.6,6.0]}],
  "meshes":[{"primitives":[{"attributes":{"POSITION":0},"indices":1}]}],
  "accessors":[
    {"bufferView":0,"byteOffset":0,"componentType":5126,"count":3,"type":"VEC3","max":[1.2,0.0,1.0],"min":[0.0,0.0,0.0]},
    {"bufferView":1,"byteOffset":0,"componentType":5123,"count":3,"type":"SCALAR","max":[2],"min":[0]}
  ],
  "bufferViews":[
    {"buffer":0,"byteOffset":0,"byteLength":36,"target":34962},
    {"buffer":0,"byteOffset":36,"byteLength":8,"target":34963}
  ],
  "buffers":[{"byteLength":44,"uri":"decoration.bin"}]
}